<?xml version="1.0" encoding="UTF-8"?>
<svg id="Layer_2" data-name="Layer 2" xmlns="http://www.w3.org/2000/svg" viewBox="0 0 10.29 8.09">
  <defs>
    <style>
      .cls-1 {
        fill: #646464;
        stroke-width: 0px;
      }

      .cls-2 {
        opacity: .99;
      }
    </style>
  </defs>
  <g id="Navi_Gadget_Bar" data-name="Navi &amp;amp; Gadget Bar">
    <g id="Black_Body" data-name="Black Body" class="cls-2">
      <path class="cls-1" d="m5.35,2.66c-.07-.01-.14-.02-.21-.02s-.14,0-.21.02c-.18-.43-.32-1.38-.96-1.95C3.64.4,3.04,0,2.24,0,1.52,0,0,.24,0,1.22c0,.66.6.85,1.47.8.7-.04,1.39.19,1.66.35.78.45,1.07.86.68,1.6,0,.24.05.37.18.51.09.1.21.19.32.27.01,0,.02.03.03.05.01.05-.01.11-.05.15-.04.04-.07.06-.12.09-.05.03-.09.07-.11.12-.02.07-.02.15.02.2.02.04.06.06.09.09,0,.12-.17.17-.17.26,0,0,.09.03.11.08.02.04.03.11.01.15-.08.02-.14.06-.16.14,0,.03-.02.06-.01.09,0,.08.04.15.04.23,0,.08-.04.16-.09.21-.16.16-.41.12-.65.09-.21-.01-.39-.02-.58,0-.29.05-.59.2-.89.71-.09.15-.24.52.09.65h0s.12.04.28.04c.15,0,.29-.04.29-.04,1.3-.26,1.52-.78,2.69-.82,1.17.04,1.39.56,2.69.82,0,0,.13.03.29.04.16,0,.28-.04.28-.04.34-.13.18-.5.09-.65-.3-.51-.6-.66-.89-.71-.19-.02-.37-.02-.58,0-.24.02-.5.06-.65-.09-.06-.05-.1-.13-.09-.21,0-.08.04-.15.04-.23,0-.03,0-.06-.01-.09-.01-.08-.08-.12-.16-.14-.02-.04-.01-.11.01-.15.02-.05.11-.08.11-.08,0-.09-.18-.14-.17-.26.03-.03.07-.05.09-.09.04-.06.05-.13.02-.2-.02-.05-.06-.08-.11-.12-.05-.02-.09-.05-.12-.09-.04-.04-.06-.1-.05-.15.01-.02.02-.04.03-.05.11-.08.23-.18.32-.27.14-.14.17-.27.18-.51-.39-.74-.1-1.15.68-1.6.28-.16.97-.39,1.66-.35.87.05,1.47-.15,1.47-.8,0-.98-1.52-1.22-2.24-1.22-.8,0-1.39.4-1.73.7-.64.57-.78,1.52-.96,1.95Zm-.77,1.18c-.15,0-.27-.12-.27-.27s.12-.27.27-.27.27.12.27.27-.12.27-.27.27Zm1.11,0c-.15,0-.27-.12-.27-.27s.12-.27.27-.27.27.12.27.27-.12.27-.27.27Z"/>
    </g>
  </g>
</svg>